<?xml version="1.0" encoding="utf-8"?>
<!-- Generator: Adobe Illustrator 16.0.4, SVG Export Plug-In . SVG Version: 6.00 Build 0)  -->
<!DOCTYPE svg PUBLIC "-//W3C//DTD SVG 1.1//EN" "http://www.w3.org/Graphics/SVG/1.1/DTD/svg11.dtd">
<svg version="1.1" id="gr_x5F_icon12_x5F_fastCGI_x5F_cacheBust"
	 xmlns="http://www.w3.org/2000/svg" xmlns:xlink="http://www.w3.org/1999/xlink" x="0px" y="0px" width="250px" height="250px"
	 viewBox="0 0 250 250" enable-background="new 0 0 250 250" xml:space="preserve">
<g id="gr_x5F_big_12_">
	<path id="gr_179_" fill="#F3BA48" d="M237.664,172.701c0,9.539-6.76,21.251-15.021,26.019l-82.621,47.701
		c-8.263,4.771-21.78,4.771-30.043,0L27.357,198.72c-8.263-4.768-15.021-16.479-15.021-26.019V77.298
		c0-9.539,6.759-21.251,15.021-26.019l82.621-47.702c8.263-4.771,21.78-4.771,30.043,0l82.621,47.702
		c8.262,4.768,15.021,16.479,15.021,26.019V172.701z"/>
	<g>
		<path fill="#FFFFFF" d="M81.55,97.098c7.826,0,13.487,2.483,18.761,7.212c0.697,0.614,0.697,1.549,0.08,2.166l-4.729,4.883
			c-0.544,0.617-1.318,0.617-1.942,0c-3.254-2.867-7.597-4.572-11.936-4.572c-9.922,0-17.285,8.293-17.285,18.059
			c0,9.689,7.439,17.91,17.362,17.91c4.649,0,8.604-1.782,11.858-4.419c0.624-0.544,1.476-0.464,1.942,0l4.803,4.955
			c0.617,0.548,0.464,1.553-0.073,2.097c-5.273,5.116-11.942,7.52-18.841,7.52c-15.499,0-27.979-12.325-27.979-27.825
			C53.571,109.581,66.051,97.098,81.55,97.098z"/>
		<path fill="#FFFFFF" d="M134.264,97.098c6.976,0,13.644,2.713,18.913,7.212c0.618,0.614,0.698,1.549,0.077,2.166l-4.806,5.04
			c-0.617,0.618-1.318,0.618-2.017,0c-3.33-2.943-7.438-4.496-11.701-4.496c-9.692,0-17.365,8.294-17.365,17.983
			c0,9.612,7.673,17.752,17.442,17.752c4.339,0,7.673-1.322,9.222-1.939v-6.592h-6.201c-0.854,0-1.469-0.617-1.469-1.392v-6.124
			c0-0.851,0.614-1.472,1.469-1.472h14.882c0.777,0,1.398,0.694,1.398,1.472v19.845c0,0.617-0.313,1.004-0.621,1.238
			c0,0-7.983,5.039-19.224,5.039c-15.423,0-27.825-12.248-27.825-27.748C106.438,109.581,118.841,97.098,134.264,97.098z"/>
		<path fill="#FFFFFF" d="M163.138,173.046c-2.853,3.436-3.909,2.822-2.357-1.359l12.113-32.69c1.552-4.179-0.342-9.428-4.21-11.656
			l-4.541-2.629c-3.868-2.229-4.698-6.864-1.852-10.299l31.064-37.455c2.85-3.436,3.91-2.822,2.358,1.36l-12.117,32.687
			c-1.548,4.186,0.346,9.431,4.214,11.66l4.541,2.63c3.868,2.231,4.698,6.863,1.845,10.299L163.138,173.046z"/>
	</g>
</g>
</svg>
